<svg width="7" height="12" viewBox="0 0 7 12" fill="none" xmlns="http://www.w3.org/2000/svg">
<path d="M0.326111 0.337C0.116427 0.551495 -0.000976562 0.839541 -0.000976562 1.1395C-0.000976563 1.43946 0.116427 1.7275 0.326111 1.942L4.29311 6.028L0.326111 10.058C0.196425 10.1911 0.101003 10.3538 0.0480447 10.5319C-0.00491373 10.7101 -0.0138252 10.8984 0.022076 11.0808C0.0579773 11.2631 0.137618 11.4341 0.254154 11.5788C0.37069 11.7236 0.520637 11.838 0.691111 11.912C0.89674 11.999 1.12386 12.0217 1.34266 11.9773C1.56145 11.9329 1.7617 11.8233 1.91711 11.663L6.67011 6.837C6.77561 6.73048 6.85906 6.60419 6.91569 6.46537C6.97232 6.32655 7.001 6.17792 7.00011 6.028C6.99986 5.72571 6.88101 5.43558 6.66911 5.22L1.91711 0.337C1.81337 0.230897 1.68958 0.146466 1.55293 0.0886137C1.41628 0.0307611 1.2695 0.000639942 1.12111 1.21562e-07C0.972761 -6.94607e-05 0.825916 0.0297334 0.689331 0.0876317C0.552746 0.14553 0.429217 0.230338 0.326111 0.337Z" fill="black"/>
</svg>
