<svg width="111" height="42" viewBox="0 0 111 42" fill="none" xmlns="http://www.w3.org/2000/svg">
<path d="M33.1574 34.2243H36.8174L36.6224 35.2743H31.5974L33.4574 24.8193H34.8224L33.1574 34.2243ZM38.282 31.1343C38.432 30.2943 38.732 29.5593 39.182 28.9293C39.642 28.2893 40.197 27.7943 40.847 27.4443C41.507 27.0943 42.207 26.9193 42.947 26.9193C43.667 26.9193 44.262 27.0743 44.732 27.3843C45.202 27.6943 45.527 28.0843 45.707 28.5543L45.977 27.0543H47.357L45.902 35.2743H44.522L44.807 33.7443C44.447 34.2243 43.972 34.6243 43.382 34.9443C42.792 35.2543 42.142 35.4093 41.432 35.4093C40.792 35.4093 40.227 35.2743 39.737 35.0043C39.247 34.7243 38.867 34.3293 38.597 33.8193C38.327 33.3093 38.192 32.7193 38.192 32.0493C38.192 31.7493 38.222 31.4443 38.282 31.1343ZM45.257 31.1493C45.297 30.9393 45.317 30.7143 45.317 30.4743C45.317 29.7443 45.097 29.1693 44.657 28.7493C44.227 28.3193 43.677 28.1043 43.007 28.1043C42.497 28.1043 42.007 28.2243 41.537 28.4643C41.077 28.7043 40.682 29.0543 40.352 29.5143C40.022 29.9743 39.802 30.5143 39.692 31.1343C39.652 31.3443 39.632 31.5743 39.632 31.8243C39.632 32.5643 39.847 33.1493 40.277 33.5793C40.707 33.9993 41.257 34.2093 41.927 34.2093C42.437 34.2093 42.922 34.0893 43.382 33.8493C43.852 33.5993 44.252 33.2443 44.582 32.7843C44.922 32.3143 45.147 31.7693 45.257 31.1493ZM50.7587 28.5843C51.1287 28.0943 51.6087 27.6943 52.1987 27.3843C52.7887 27.0743 53.4287 26.9193 54.1187 26.9193C55.0987 26.9193 55.8837 27.2143 56.4737 27.8043C57.0737 28.3943 57.3737 29.1943 57.3737 30.2043C57.3737 30.4943 57.3437 30.8043 57.2837 31.1343C57.1337 31.9643 56.8287 32.7043 56.3687 33.3543C55.9187 34.0043 55.3637 34.5093 54.7037 34.8693C54.0537 35.2293 53.3637 35.4093 52.6337 35.4093C51.9237 35.4093 51.3287 35.2543 50.8487 34.9443C50.3687 34.6343 50.0337 34.2393 49.8437 33.7593L49.5737 35.2743H48.2087L50.1737 24.1743H51.5387L50.7587 28.5843ZM55.8887 31.1343C55.9287 30.9243 55.9487 30.6943 55.9487 30.4443C55.9487 29.7143 55.7337 29.1443 55.3037 28.7343C54.8737 28.3143 54.3187 28.1043 53.6387 28.1043C53.1387 28.1043 52.6537 28.2293 52.1837 28.4793C51.7137 28.7193 51.3087 29.0743 50.9687 29.5443C50.6387 30.0043 50.4187 30.5393 50.3087 31.1493C50.2687 31.3593 50.2487 31.5893 50.2487 31.8393C50.2487 32.5693 50.4637 33.1493 50.8937 33.5793C51.3337 33.9993 51.8887 34.2093 52.5587 34.2093C53.0687 34.2093 53.5537 34.0893 54.0137 33.8493C54.4837 33.5993 54.8837 33.2443 55.2137 32.7843C55.5537 32.3143 55.7787 31.7643 55.8887 31.1343ZM61.2405 35.4093C60.3805 35.4093 59.6755 35.2043 59.1255 34.7943C58.5755 34.3843 58.3005 33.8343 58.3005 33.1443C58.3005 33.0143 58.3055 32.9193 58.3155 32.8593H59.6505C59.6105 33.2893 59.7355 33.6393 60.0255 33.9093C60.3255 34.1793 60.7555 34.3143 61.3155 34.3143C61.8755 34.3143 62.3255 34.2093 62.6655 33.9993C63.0155 33.7793 63.1905 33.4743 63.1905 33.0843C63.1905 32.7543 63.0505 32.4943 62.7705 32.3043C62.4905 32.1143 62.0605 31.9093 61.4805 31.6893C60.9705 31.4993 60.5505 31.3193 60.2205 31.1493C59.8905 30.9793 59.6105 30.7443 59.3805 30.4443C59.1505 30.1343 59.0355 29.7443 59.0355 29.2743C59.0355 28.8143 59.1655 28.4043 59.4255 28.0443C59.6955 27.6843 60.0655 27.4093 60.5355 27.2193C61.0155 27.0193 61.5605 26.9193 62.1705 26.9193C63.0105 26.9193 63.7005 27.1293 64.2405 27.5493C64.7805 27.9693 65.0505 28.5193 65.0505 29.1993C65.0505 29.3293 65.0455 29.4293 65.0355 29.4993H63.7305L63.7455 29.3193C63.7455 28.9193 63.5905 28.6043 63.2805 28.3743C62.9805 28.1343 62.5805 28.0143 62.0805 28.0143C61.5905 28.0143 61.1855 28.1243 60.8655 28.3443C60.5555 28.5643 60.4005 28.8593 60.4005 29.2293C60.4005 29.5793 60.5455 29.8543 60.8355 30.0543C61.1255 30.2543 61.5755 30.4743 62.1855 30.7143C62.6955 30.9143 63.1055 31.0993 63.4155 31.2693C63.7255 31.4293 63.9905 31.6543 64.2105 31.9443C64.4305 32.2343 64.5405 32.5993 64.5405 33.0393C64.5405 33.5193 64.3955 33.9393 64.1055 34.2993C63.8255 34.6593 63.4355 34.9343 62.9355 35.1243C62.4355 35.3143 61.8705 35.4093 61.2405 35.4093Z" fill="#B5B5B5"/>
<path d="M35.089 22.2162C34.081 22.2162 33.283 22.0062 32.695 21.5862C32.119 21.1662 31.705 20.5782 31.453 19.8222C31.213 19.0542 31.093 18.1722 31.093 17.1762V12.2802C31.093 11.2482 31.225 10.3542 31.489 9.59817C31.753 8.84217 32.203 8.26017 32.839 7.85217C33.487 7.43217 34.363 7.22217 35.467 7.22217C36.547 7.22217 37.393 7.40217 38.005 7.76217C38.629 8.12217 39.073 8.62017 39.337 9.25617C39.601 9.89217 39.733 10.6362 39.733 11.4882V12.4242H36.583V11.2362C36.583 10.9242 36.559 10.6362 36.511 10.3722C36.475 10.1082 36.379 9.89817 36.223 9.74217C36.079 9.57417 35.839 9.49017 35.503 9.49017C35.155 9.49017 34.903 9.58617 34.747 9.77817C34.591 9.95817 34.489 10.1862 34.441 10.4622C34.405 10.7382 34.387 11.0262 34.387 11.3262V18.0762C34.387 18.4002 34.417 18.7062 34.477 18.9942C34.549 19.2702 34.669 19.4982 34.837 19.6782C35.017 19.8462 35.269 19.9302 35.593 19.9302C35.929 19.9302 36.187 19.8402 36.367 19.6602C36.547 19.4802 36.673 19.2462 36.745 18.9582C36.817 18.6702 36.853 18.3642 36.853 18.0402V16.3302H35.539V14.4402H39.751V22.0002H37.627L37.447 20.7942C37.255 21.2022 36.973 21.5442 36.601 21.8202C36.229 22.0842 35.725 22.2162 35.089 22.2162ZM41.6416 22.0002V11.5962H44.5756V13.3242C44.9116 12.7242 45.2476 12.2682 45.5836 11.9562C45.9196 11.6322 46.3276 11.4702 46.8076 11.4702C46.9036 11.4702 46.9876 11.4762 47.0596 11.4882C47.1316 11.4882 47.1976 11.5002 47.2576 11.5242V14.4402C47.1256 14.3802 46.9756 14.3322 46.8076 14.2962C46.6516 14.2482 46.4836 14.2242 46.3036 14.2242C45.9676 14.2242 45.6556 14.3142 45.3676 14.4942C45.0796 14.6742 44.8156 14.9202 44.5756 15.2322V22.0002H41.6416ZM51.8806 22.1802C51.1246 22.1802 50.4766 22.0482 49.9366 21.7842C49.3966 21.5082 48.9826 21.1122 48.6946 20.5962C48.4066 20.0682 48.2626 19.4382 48.2626 18.7062V14.8902C48.2626 14.1462 48.4066 13.5162 48.6946 13.0002C48.9826 12.4842 49.3966 12.0942 49.9366 11.8302C50.4886 11.5542 51.1366 11.4162 51.8806 11.4162C52.6486 11.4162 53.2846 11.5482 53.7886 11.8122C54.3046 12.0762 54.6886 12.4662 54.9406 12.9822C55.2046 13.4982 55.3366 14.1342 55.3366 14.8902V16.9782H51.1606V18.9762C51.1606 19.2402 51.1906 19.4562 51.2506 19.6242C51.3106 19.7922 51.3946 19.9122 51.5026 19.9842C51.6106 20.0562 51.7366 20.0922 51.8806 20.0922C52.0246 20.0922 52.1506 20.0622 52.2586 20.0022C52.3786 19.9302 52.4686 19.8222 52.5286 19.6782C52.6006 19.5342 52.6366 19.3362 52.6366 19.0842V17.9862H55.3366V18.9942C55.3366 20.0502 55.0306 20.8482 54.4186 21.3882C53.8066 21.9162 52.9606 22.1802 51.8806 22.1802ZM51.1606 15.6102H52.6366V14.5662C52.6366 14.2902 52.6006 14.0742 52.5286 13.9182C52.4686 13.7622 52.3786 13.6542 52.2586 13.5942C52.1506 13.5342 52.0186 13.5042 51.8626 13.5042C51.7186 13.5042 51.5926 13.5402 51.4846 13.6122C51.3886 13.6842 51.3106 13.8102 51.2506 13.9902C51.1906 14.1582 51.1606 14.4042 51.1606 14.7282V15.6102ZM57.2217 25.0242V22.9902C57.5937 22.9902 57.8997 22.9662 58.1397 22.9182C58.3917 22.8702 58.5777 22.7802 58.6977 22.6482C58.8297 22.5162 58.8957 22.3362 58.8957 22.1082C58.8957 21.9042 58.8597 21.6582 58.7877 21.3702C58.7157 21.0702 58.6257 20.7342 58.5177 20.3622L56.0697 11.5962H58.8237L60.1377 17.6082L61.1277 11.5962H63.8997L61.5057 22.2522C61.3497 22.9722 61.1037 23.5302 60.7677 23.9262C60.4317 24.3342 60.0177 24.6162 59.5257 24.7722C59.0457 24.9402 58.4997 25.0242 57.8877 25.0242H57.2217ZM69.3401 22.2162C68.2361 22.2162 67.3601 22.0182 66.7121 21.6222C66.0761 21.2142 65.6261 20.6502 65.3621 19.9302C65.0981 19.1982 64.9661 18.3402 64.9661 17.3562V12.1002C64.9661 11.0922 65.0981 10.2282 65.3621 9.50817C65.6261 8.77617 66.0761 8.21217 66.7121 7.81617C67.3601 7.42017 68.2361 7.22217 69.3401 7.22217C70.4201 7.22217 71.2601 7.40217 71.8601 7.76217C72.4721 8.11017 72.9041 8.60217 73.1561 9.23817C73.4081 9.87417 73.5341 10.6062 73.5341 11.4342V12.6942H70.3841V11.2362C70.3841 10.9482 70.3661 10.6722 70.3301 10.4082C70.3061 10.1442 70.2221 9.92817 70.0781 9.76017C69.9341 9.58017 69.6881 9.49017 69.3401 9.49017C69.0041 9.49017 68.7521 9.58017 68.5841 9.76017C68.4281 9.94017 68.3261 10.1682 68.2781 10.4442C68.2421 10.7082 68.2241 10.9902 68.2241 11.2902V18.1482C68.2241 18.4722 68.2481 18.7722 68.2961 19.0482C68.3561 19.3122 68.4641 19.5282 68.6201 19.6962C68.7881 19.8522 69.0281 19.9302 69.3401 19.9302C69.6761 19.9302 69.9161 19.8462 70.0601 19.6782C70.2041 19.4982 70.2941 19.2702 70.3301 18.9942C70.3661 18.7182 70.3841 18.4362 70.3841 18.1482V16.6182H73.5341V17.8782C73.5341 18.7062 73.4081 19.4502 73.1561 20.1102C72.9161 20.7582 72.4901 21.2742 71.8781 21.6582C71.2781 22.0302 70.4321 22.2162 69.3401 22.2162ZM75.2707 22.0002V7.42017H78.1867V22.0002H75.2707ZM83.5041 22.1802C82.7601 22.1802 82.1121 22.0542 81.5601 21.8022C81.0201 21.5502 80.6001 21.1722 80.3001 20.6682C80.0121 20.1642 79.8681 19.5342 79.8681 18.7782V14.8182C79.8681 14.0622 80.0121 13.4322 80.3001 12.9282C80.6001 12.4242 81.0201 12.0462 81.5601 11.7942C82.1121 11.5422 82.7601 11.4162 83.5041 11.4162C84.2481 11.4162 84.8901 11.5422 85.4301 11.7942C85.9821 12.0462 86.4081 12.4242 86.7081 12.9282C87.0081 13.4322 87.1581 14.0622 87.1581 14.8182V18.7782C87.1581 19.5342 87.0081 20.1642 86.7081 20.6682C86.4081 21.1722 85.9821 21.5502 85.4301 21.8022C84.8901 22.0542 84.2481 22.1802 83.5041 22.1802ZM83.5221 20.2362C83.7141 20.2362 83.8641 20.1882 83.9721 20.0922C84.0801 19.9842 84.1521 19.8402 84.1881 19.6602C84.2361 19.4682 84.2601 19.2402 84.2601 18.9762V14.6202C84.2601 14.3562 84.2361 14.1342 84.1881 13.9542C84.1521 13.7622 84.0801 13.6182 83.9721 13.5222C83.8641 13.4142 83.7141 13.3602 83.5221 13.3602C83.3301 13.3602 83.1801 13.4142 83.0721 13.5222C82.9641 13.6182 82.8861 13.7622 82.8381 13.9542C82.7901 14.1342 82.7661 14.3562 82.7661 14.6202V18.9762C82.7661 19.2402 82.7901 19.4682 82.8381 19.6602C82.8861 19.8402 82.9641 19.9842 83.0721 20.0922C83.1801 20.1882 83.3301 20.2362 83.5221 20.2362ZM90.1353 22.0002L88.0473 11.5962H90.8553L91.7193 18.2382L92.5113 11.5962H95.3193L93.1773 22.0002H90.1353ZM99.7635 22.1802C99.0075 22.1802 98.3595 22.0482 97.8195 21.7842C97.2795 21.5082 96.8655 21.1122 96.5775 20.5962C96.2895 20.0682 96.1455 19.4382 96.1455 18.7062V14.8902C96.1455 14.1462 96.2895 13.5162 96.5775 13.0002C96.8655 12.4842 97.2795 12.0942 97.8195 11.8302C98.3715 11.5542 99.0195 11.4162 99.7635 11.4162C100.531 11.4162 101.167 11.5482 101.671 11.8122C102.187 12.0762 102.571 12.4662 102.823 12.9822C103.087 13.4982 103.219 14.1342 103.219 14.8902V16.9782H99.0435V18.9762C99.0435 19.2402 99.0735 19.4562 99.1335 19.6242C99.1935 19.7922 99.2775 19.9122 99.3855 19.9842C99.4935 20.0562 99.6195 20.0922 99.7635 20.0922C99.9075 20.0922 100.033 20.0622 100.141 20.0022C100.261 19.9302 100.351 19.8222 100.411 19.6782C100.483 19.5342 100.519 19.3362 100.519 19.0842V17.9862H103.219V18.9942C103.219 20.0502 102.913 20.8482 102.301 21.3882C101.689 21.9162 100.843 22.1802 99.7635 22.1802ZM99.0435 15.6102H100.519V14.5662C100.519 14.2902 100.483 14.0742 100.411 13.9182C100.351 13.7622 100.261 13.6542 100.141 13.5942C100.033 13.5342 99.9015 13.5042 99.7455 13.5042C99.6015 13.5042 99.4755 13.5402 99.3675 13.6122C99.2715 13.6842 99.1935 13.8102 99.1335 13.9902C99.0735 14.1582 99.0435 14.4042 99.0435 14.7282V15.6102ZM104.852 22.0002V11.5962H107.786V13.3242C108.122 12.7242 108.458 12.2682 108.794 11.9562C109.13 11.6322 109.538 11.4702 110.018 11.4702C110.114 11.4702 110.198 11.4762 110.27 11.4882C110.342 11.4882 110.408 11.5002 110.468 11.5242V14.4402C110.336 14.3802 110.186 14.3322 110.018 14.2962C109.862 14.2482 109.694 14.2242 109.514 14.2242C109.178 14.2242 108.866 14.3142 108.578 14.4942C108.29 14.6742 108.026 14.9202 107.786 15.2322V22.0002H104.852Z" fill="white"/>
<path d="M13.3763 32.3568C13.0395 32.7599 12.6245 33.0907 12.1564 33.3291C11.6882 33.5675 11.1767 33.7086 10.6525 33.7439C10.1284 33.7791 9.60248 33.7079 9.10661 33.5344C8.61074 33.3609 8.15514 33.0888 7.76731 32.7345C7.37947 32.3801 7.06743 31.9509 6.85001 31.4726C6.63258 30.9944 6.51428 30.4771 6.50224 29.9519C6.49019 29.4267 6.58465 28.9045 6.77993 28.4168C6.9752 27.9291 7.26724 27.486 7.63842 27.1142C7.26666 27.4854 6.82357 27.7774 6.33587 27.9727C5.84817 28.168 5.32597 28.2625 4.80076 28.2504C4.27556 28.2384 3.75824 28.1201 3.28 27.9026C2.80177 27.6852 2.37253 27.3732 2.01817 26.9853C1.66382 26.5975 1.39169 26.1419 1.21821 25.646C1.04473 25.1502 0.973494 24.6243 1.00879 24.1001C1.04408 23.576 1.18518 23.0644 1.42358 22.5963C1.66197 22.1281 1.99272 21.7131 2.39587 21.3763C1.99272 21.0395 1.66197 20.6245 1.42358 20.1563C1.18518 19.6882 1.04408 19.1766 1.00879 18.6525C0.973494 18.1283 1.04473 17.6025 1.21821 17.1066C1.39169 16.6107 1.66382 16.1551 2.01817 15.7673C2.37253 15.3795 2.80177 15.0674 3.28 14.85C3.75824 14.6326 4.27556 14.5143 4.80076 14.5022C5.32597 14.4902 5.84817 14.5846 6.33587 14.7799C6.82357 14.9752 7.26666 15.2672 7.63842 15.6384C7.26724 15.2666 6.9752 14.8235 6.77993 14.3358C6.58465 13.8481 6.49019 13.3259 6.50223 12.8007C6.51428 12.2755 6.63258 11.7582 6.85001 11.28C7.06743 10.8017 7.37947 10.3725 7.76731 10.0181C8.15514 9.66382 8.61074 9.39169 9.10661 9.21821C9.60248 9.04473 10.1283 8.97349 10.6525 9.00879C11.1767 9.04408 11.6882 9.18518 12.1564 9.42358C12.6245 9.66197 13.0395 9.99272 13.3763 10.3958C13.7132 9.99272 14.1282 9.66197 14.5963 9.42358C15.0644 9.18518 15.576 9.04408 16.1002 9.00879C16.6243 8.97349 17.1502 9.04473 17.6461 9.21821C18.1419 9.39169 18.5975 9.66382 18.9854 10.0181C19.3732 10.3725 19.6852 10.8017 19.9027 11.28C20.1201 11.7582 20.2384 12.2755 20.2504 12.8007C20.2625 13.3259 20.168 13.8481 19.9727 14.3358C19.7775 14.8235 19.4854 15.2666 19.1142 15.6384C19.486 15.2672 19.9291 14.9752 20.4168 14.7799C20.9045 14.5846 21.4267 14.4902 21.9519 14.5022C22.4771 14.5143 22.9944 14.6326 23.4727 14.85C23.9509 15.0674 24.3801 15.3794 24.7345 15.7673C25.0888 16.1551 25.361 16.6107 25.5344 17.1066C25.7079 17.6025 25.7792 18.1283 25.7439 18.6525C25.7086 19.1766 25.5675 19.6882 25.3291 20.1563C25.0907 20.6245 24.7599 21.0395 24.3568 21.3763C24.7599 21.7131 25.0907 22.1281 25.3291 22.5963C25.5675 23.0644 25.7086 23.576 25.7439 24.1001C25.7792 24.6243 25.7079 25.1502 25.5345 25.646C25.361 26.1419 25.0888 26.5975 24.7345 26.9853C24.3801 27.3732 23.9509 27.6852 23.4727 27.9026C22.9944 28.1201 22.4771 28.2384 21.9519 28.2504C21.4267 28.2624 20.9045 28.168 20.4168 27.9727C19.9291 27.7774 19.486 27.4854 19.1142 27.1142C19.8131 27.8751 20.1811 28.8825 20.1372 29.9147C20.0933 30.9469 19.6412 31.9194 18.8803 32.6182C18.1194 33.3171 17.1121 33.685 16.0799 33.6412C15.0477 33.5973 14.0752 33.1452 13.3763 32.3843" fill="white"/>
<path d="M13.3763 32.3568C13.0395 32.7599 12.6245 33.0907 12.1564 33.3291C11.6882 33.5675 11.1767 33.7086 10.6525 33.7439C10.1284 33.7791 9.60248 33.7079 9.10661 33.5344C8.61074 33.3609 8.15514 33.0888 7.76731 32.7345C7.37947 32.3801 7.06743 31.9509 6.85001 31.4726C6.63258 30.9944 6.51428 30.4771 6.50224 29.9519C6.49019 29.4267 6.58465 28.9045 6.77993 28.4168C6.9752 27.9291 7.26724 27.486 7.63842 27.1142C7.26666 27.4854 6.82357 27.7774 6.33587 27.9727C5.84817 28.168 5.32597 28.2625 4.80076 28.2504C4.27556 28.2384 3.75824 28.1201 3.28 27.9026C2.80177 27.6852 2.37253 27.3732 2.01817 26.9853C1.66382 26.5975 1.39169 26.1419 1.21821 25.646C1.04473 25.1502 0.973494 24.6243 1.00879 24.1001C1.04408 23.576 1.18518 23.0644 1.42358 22.5963C1.66197 22.1281 1.99272 21.7131 2.39587 21.3763C1.99272 21.0395 1.66197 20.6245 1.42358 20.1563C1.18518 19.6882 1.04408 19.1766 1.00879 18.6525C0.973494 18.1283 1.04473 17.6025 1.21821 17.1066C1.39169 16.6107 1.66382 16.1551 2.01817 15.7673C2.37253 15.3795 2.80177 15.0674 3.28 14.85C3.75824 14.6326 4.27556 14.5143 4.80076 14.5022C5.32597 14.4902 5.84817 14.5846 6.33587 14.7799C6.82357 14.9752 7.26666 15.2672 7.63842 15.6384C7.26724 15.2666 6.9752 14.8235 6.77993 14.3358C6.58465 13.8481 6.49019 13.3259 6.50223 12.8007C6.51428 12.2755 6.63258 11.7582 6.85001 11.28C7.06743 10.8017 7.37947 10.3725 7.76731 10.0181C8.15514 9.66382 8.61074 9.39169 9.10661 9.21821C9.60248 9.04473 10.1283 8.97349 10.6525 9.00879C11.1767 9.04408 11.6882 9.18518 12.1564 9.42358C12.6245 9.66197 13.0395 9.99272 13.3763 10.3958C13.7132 9.99272 14.1282 9.66197 14.5963 9.42358C15.0644 9.18518 15.576 9.04408 16.1002 9.00879C16.6243 8.97349 17.1502 9.04473 17.6461 9.21821C18.1419 9.39169 18.5975 9.66382 18.9854 10.0181C19.3732 10.3725 19.6852 10.8017 19.9027 11.28C20.1201 11.7582 20.2384 12.2755 20.2504 12.8007C20.2625 13.3259 20.168 13.8481 19.9727 14.3358C19.7775 14.8235 19.4854 15.2666 19.1142 15.6384C19.486 15.2672 19.9291 14.9752 20.4168 14.7799C20.9045 14.5846 21.4267 14.4902 21.9519 14.5022C22.4771 14.5143 22.9944 14.6326 23.4727 14.85C23.9509 15.0674 24.3801 15.3794 24.7345 15.7673C25.0888 16.1551 25.361 16.6107 25.5344 17.1066C25.7079 17.6025 25.7792 18.1283 25.7439 18.6525C25.7086 19.1766 25.5675 19.6882 25.3291 20.1563C25.0907 20.6245 24.7599 21.0395 24.3568 21.3763C24.7599 21.7131 25.0907 22.1281 25.3291 22.5963C25.5675 23.0644 25.7086 23.576 25.7439 24.1001C25.7792 24.6243 25.7079 25.1502 25.5345 25.646C25.361 26.1419 25.0888 26.5975 24.7345 26.9853C24.3801 27.3732 23.9509 27.6852 23.4727 27.9026C22.9944 28.1201 22.4771 28.2384 21.9519 28.2504C21.4267 28.2624 20.9045 28.168 20.4168 27.9727C19.9291 27.7774 19.486 27.4854 19.1142 27.1142C19.8131 27.8751 20.1811 28.8825 20.1372 29.9147C20.0933 30.9469 19.6412 31.9194 18.8803 32.6182C18.1194 33.3171 17.1121 33.685 16.0799 33.6412C15.0477 33.5973 14.0752 33.1452 13.3763 32.3843" stroke="#1A1A1A" stroke-width="2" stroke-linecap="round" stroke-linejoin="round"/>
<path d="M7.87378 15.8735L18.8818 26.8814" stroke="#1A1A1A" stroke-width="2" stroke-linecap="round" stroke-linejoin="round"/>
<path d="M7.88037 26.8719C12.362 22.3903 14.8746 19.8776 19.3562 15.396" stroke="#1A1A1A" stroke-width="2" stroke-linecap="round" stroke-linejoin="round"/>
</svg>
