<svg width="111" height="42" viewBox="0 0 111 42" fill="none" xmlns="http://www.w3.org/2000/svg">
<path d="M33.1575 34.2244H36.8175L36.6225 35.2744H31.5975L33.4575 24.8194H34.8225L33.1575 34.2244ZM38.2821 31.1344C38.4321 30.2944 38.7321 29.5594 39.1821 28.9294C39.6421 28.2894 40.1971 27.7944 40.8471 27.4444C41.5071 27.0944 42.2071 26.9194 42.9471 26.9194C43.6671 26.9194 44.2621 27.0744 44.7321 27.3844C45.2021 27.6944 45.5271 28.0844 45.7071 28.5544L45.9771 27.0544H47.3571L45.9021 35.2744H44.5221L44.8071 33.7444C44.4471 34.2244 43.9721 34.6244 43.3821 34.9444C42.7921 35.2544 42.1421 35.4094 41.4321 35.4094C40.7921 35.4094 40.2271 35.2744 39.7371 35.0044C39.2471 34.7244 38.8671 34.3294 38.5971 33.8194C38.3271 33.3094 38.1921 32.7194 38.1921 32.0494C38.1921 31.7494 38.2221 31.4444 38.2821 31.1344ZM45.2571 31.1494C45.2971 30.9394 45.3171 30.7144 45.3171 30.4744C45.3171 29.7444 45.0971 29.1694 44.6571 28.7494C44.2271 28.3194 43.6771 28.1044 43.0071 28.1044C42.4971 28.1044 42.0071 28.2244 41.5371 28.4644C41.0771 28.7044 40.6821 29.0544 40.3521 29.5144C40.0221 29.9744 39.8021 30.5144 39.6921 31.1344C39.6521 31.3444 39.6321 31.5744 39.6321 31.8244C39.6321 32.5644 39.8471 33.1494 40.2771 33.5794C40.7071 33.9994 41.2571 34.2094 41.9271 34.2094C42.4371 34.2094 42.9221 34.0894 43.3821 33.8494C43.8521 33.5994 44.2521 33.2444 44.5821 32.7844C44.9221 32.3144 45.1471 31.7694 45.2571 31.1494ZM50.7588 28.5844C51.1288 28.0944 51.6088 27.6944 52.1988 27.3844C52.7888 27.0744 53.4288 26.9194 54.1188 26.9194C55.0988 26.9194 55.8838 27.2144 56.4738 27.8044C57.0738 28.3944 57.3738 29.1944 57.3738 30.2044C57.3738 30.4944 57.3438 30.8044 57.2838 31.1344C57.1338 31.9644 56.8288 32.7044 56.3688 33.3544C55.9188 34.0044 55.3638 34.5094 54.7038 34.8694C54.0538 35.2294 53.3638 35.4094 52.6338 35.4094C51.9238 35.4094 51.3288 35.2544 50.8488 34.9444C50.3688 34.6344 50.0338 34.2394 49.8438 33.7594L49.5738 35.2744H48.2088L50.1738 24.1744H51.5388L50.7588 28.5844ZM55.8888 31.1344C55.9288 30.9244 55.9488 30.6944 55.9488 30.4444C55.9488 29.7144 55.7338 29.1444 55.3038 28.7344C54.8738 28.3144 54.3188 28.1044 53.6388 28.1044C53.1388 28.1044 52.6538 28.2294 52.1838 28.4794C51.7138 28.7194 51.3088 29.0744 50.9688 29.5444C50.6388 30.0044 50.4188 30.5394 50.3088 31.1494C50.2688 31.3594 50.2488 31.5894 50.2488 31.8394C50.2488 32.5694 50.4638 33.1494 50.8938 33.5794C51.3338 33.9994 51.8888 34.2094 52.5588 34.2094C53.0688 34.2094 53.5538 34.0894 54.0138 33.8494C54.4838 33.5994 54.8838 33.2444 55.2138 32.7844C55.5538 32.3144 55.7788 31.7644 55.8888 31.1344ZM61.2406 35.4094C60.3806 35.4094 59.6756 35.2044 59.1256 34.7944C58.5756 34.3844 58.3006 33.8344 58.3006 33.1444C58.3006 33.0144 58.3056 32.9194 58.3156 32.8594H59.6506C59.6106 33.2894 59.7356 33.6394 60.0256 33.9094C60.3256 34.1794 60.7556 34.3144 61.3156 34.3144C61.8756 34.3144 62.3256 34.2094 62.6656 33.9994C63.0156 33.7794 63.1906 33.4744 63.1906 33.0844C63.1906 32.7544 63.0506 32.4944 62.7706 32.3044C62.4906 32.1144 62.0606 31.9094 61.4806 31.6894C60.9706 31.4994 60.5506 31.3194 60.2206 31.1494C59.8906 30.9794 59.6106 30.7444 59.3806 30.4444C59.1506 30.1344 59.0356 29.7444 59.0356 29.2744C59.0356 28.8144 59.1656 28.4044 59.4256 28.0444C59.6956 27.6844 60.0656 27.4094 60.5356 27.2194C61.0156 27.0194 61.5606 26.9194 62.1706 26.9194C63.0106 26.9194 63.7006 27.1294 64.2406 27.5494C64.7806 27.9694 65.0506 28.5194 65.0506 29.1994C65.0506 29.3294 65.0456 29.4294 65.0356 29.4994H63.7306L63.7456 29.3194C63.7456 28.9194 63.5906 28.6044 63.2806 28.3744C62.9806 28.1344 62.5806 28.0144 62.0806 28.0144C61.5906 28.0144 61.1856 28.1244 60.8656 28.3444C60.5556 28.5644 60.4006 28.8594 60.4006 29.2294C60.4006 29.5794 60.5456 29.8544 60.8356 30.0544C61.1256 30.2544 61.5756 30.4744 62.1856 30.7144C62.6956 30.9144 63.1056 31.0994 63.4156 31.2694C63.7256 31.4294 63.9906 31.6544 64.2106 31.9444C64.4306 32.2344 64.5406 32.5994 64.5406 33.0394C64.5406 33.5194 64.3956 33.9394 64.1056 34.2994C63.8256 34.6594 63.4356 34.9344 62.9356 35.1244C62.4356 35.3144 61.8706 35.4094 61.2406 35.4094Z" fill="#454545"/>
<path d="M35.0889 22.216C34.0809 22.216 33.2829 22.006 32.6949 21.586C32.1189 21.166 31.7049 20.578 31.4529 19.822C31.2129 19.054 31.0929 18.172 31.0929 17.176V12.28C31.0929 11.248 31.2249 10.354 31.4889 9.598C31.7529 8.842 32.2029 8.26 32.8389 7.852C33.4869 7.432 34.3629 7.222 35.4669 7.222C36.5469 7.222 37.3929 7.402 38.0049 7.762C38.6289 8.122 39.0729 8.62 39.3369 9.256C39.6009 9.892 39.7329 10.636 39.7329 11.488V12.424H36.5829V11.236C36.5829 10.924 36.5589 10.636 36.5109 10.372C36.4749 10.108 36.3789 9.898 36.2229 9.742C36.0789 9.574 35.8389 9.49 35.5029 9.49C35.1549 9.49 34.9029 9.586 34.7469 9.778C34.5909 9.958 34.4889 10.186 34.4409 10.462C34.4049 10.738 34.3869 11.026 34.3869 11.326V18.076C34.3869 18.4 34.4169 18.706 34.4769 18.994C34.5489 19.27 34.6689 19.498 34.8369 19.678C35.0169 19.846 35.2689 19.93 35.5929 19.93C35.9289 19.93 36.1869 19.84 36.3669 19.66C36.5469 19.48 36.6729 19.246 36.7449 18.958C36.8169 18.67 36.8529 18.364 36.8529 18.04V16.33H35.5389V14.44H39.7509V22H37.6269L37.4469 20.794C37.2549 21.202 36.9729 21.544 36.6009 21.82C36.2289 22.084 35.7249 22.216 35.0889 22.216ZM41.6415 22V11.596H44.5755V13.324C44.9115 12.724 45.2475 12.268 45.5835 11.956C45.9195 11.632 46.3275 11.47 46.8075 11.47C46.9035 11.47 46.9875 11.476 47.0595 11.488C47.1315 11.488 47.1975 11.5 47.2575 11.524V14.44C47.1255 14.38 46.9755 14.332 46.8075 14.296C46.6515 14.248 46.4835 14.224 46.3035 14.224C45.9675 14.224 45.6555 14.314 45.3675 14.494C45.0795 14.674 44.8155 14.92 44.5755 15.232V22H41.6415ZM51.8805 22.18C51.1245 22.18 50.4765 22.048 49.9365 21.784C49.3965 21.508 48.9825 21.112 48.6945 20.596C48.4065 20.068 48.2625 19.438 48.2625 18.706V14.89C48.2625 14.146 48.4065 13.516 48.6945 13C48.9825 12.484 49.3965 12.094 49.9365 11.83C50.4885 11.554 51.1365 11.416 51.8805 11.416C52.6485 11.416 53.2845 11.548 53.7885 11.812C54.3045 12.076 54.6885 12.466 54.9405 12.982C55.2045 13.498 55.3365 14.134 55.3365 14.89V16.978H51.1605V18.976C51.1605 19.24 51.1905 19.456 51.2505 19.624C51.3105 19.792 51.3945 19.912 51.5025 19.984C51.6105 20.056 51.7365 20.092 51.8805 20.092C52.0245 20.092 52.1505 20.062 52.2585 20.002C52.3785 19.93 52.4685 19.822 52.5285 19.678C52.6005 19.534 52.6365 19.336 52.6365 19.084V17.986H55.3365V18.994C55.3365 20.05 55.0305 20.848 54.4185 21.388C53.8065 21.916 52.9605 22.18 51.8805 22.18ZM51.1605 15.61H52.6365V14.566C52.6365 14.29 52.6005 14.074 52.5285 13.918C52.4685 13.762 52.3785 13.654 52.2585 13.594C52.1505 13.534 52.0185 13.504 51.8625 13.504C51.7185 13.504 51.5925 13.54 51.4845 13.612C51.3885 13.684 51.3105 13.81 51.2505 13.99C51.1905 14.158 51.1605 14.404 51.1605 14.728V15.61ZM57.2216 25.024V22.99C57.5936 22.99 57.8996 22.966 58.1396 22.918C58.3916 22.87 58.5776 22.78 58.6976 22.648C58.8296 22.516 58.8956 22.336 58.8956 22.108C58.8956 21.904 58.8596 21.658 58.7876 21.37C58.7156 21.07 58.6256 20.734 58.5176 20.362L56.0696 11.596H58.8236L60.1376 17.608L61.1276 11.596H63.8996L61.5056 22.252C61.3496 22.972 61.1036 23.53 60.7676 23.926C60.4316 24.334 60.0176 24.616 59.5256 24.772C59.0456 24.94 58.4996 25.024 57.8876 25.024H57.2216ZM69.34 22.216C68.236 22.216 67.36 22.018 66.712 21.622C66.076 21.214 65.626 20.65 65.362 19.93C65.098 19.198 64.966 18.34 64.966 17.356V12.1C64.966 11.092 65.098 10.228 65.362 9.508C65.626 8.776 66.076 8.212 66.712 7.816C67.36 7.42 68.236 7.222 69.34 7.222C70.42 7.222 71.26 7.402 71.86 7.762C72.472 8.11 72.904 8.602 73.156 9.238C73.408 9.874 73.534 10.606 73.534 11.434V12.694H70.384V11.236C70.384 10.948 70.366 10.672 70.33 10.408C70.306 10.144 70.222 9.928 70.078 9.76C69.934 9.58 69.688 9.49 69.34 9.49C69.004 9.49 68.752 9.58 68.584 9.76C68.428 9.94 68.326 10.168 68.278 10.444C68.242 10.708 68.224 10.99 68.224 11.29V18.148C68.224 18.472 68.248 18.772 68.296 19.048C68.356 19.312 68.464 19.528 68.62 19.696C68.788 19.852 69.028 19.93 69.34 19.93C69.676 19.93 69.916 19.846 70.06 19.678C70.204 19.498 70.294 19.27 70.33 18.994C70.366 18.718 70.384 18.436 70.384 18.148V16.618H73.534V17.878C73.534 18.706 73.408 19.45 73.156 20.11C72.916 20.758 72.49 21.274 71.878 21.658C71.278 22.03 70.432 22.216 69.34 22.216ZM75.2706 22V7.42H78.1866V22H75.2706ZM83.504 22.18C82.76 22.18 82.112 22.054 81.56 21.802C81.02 21.55 80.6 21.172 80.3 20.668C80.012 20.164 79.868 19.534 79.868 18.778V14.818C79.868 14.062 80.012 13.432 80.3 12.928C80.6 12.424 81.02 12.046 81.56 11.794C82.112 11.542 82.76 11.416 83.504 11.416C84.248 11.416 84.89 11.542 85.43 11.794C85.982 12.046 86.408 12.424 86.708 12.928C87.008 13.432 87.158 14.062 87.158 14.818V18.778C87.158 19.534 87.008 20.164 86.708 20.668C86.408 21.172 85.982 21.55 85.43 21.802C84.89 22.054 84.248 22.18 83.504 22.18ZM83.522 20.236C83.714 20.236 83.864 20.188 83.972 20.092C84.08 19.984 84.152 19.84 84.188 19.66C84.236 19.468 84.26 19.24 84.26 18.976V14.62C84.26 14.356 84.236 14.134 84.188 13.954C84.152 13.762 84.08 13.618 83.972 13.522C83.864 13.414 83.714 13.36 83.522 13.36C83.33 13.36 83.18 13.414 83.072 13.522C82.964 13.618 82.886 13.762 82.838 13.954C82.79 14.134 82.766 14.356 82.766 14.62V18.976C82.766 19.24 82.79 19.468 82.838 19.66C82.886 19.84 82.964 19.984 83.072 20.092C83.18 20.188 83.33 20.236 83.522 20.236ZM90.1352 22L88.0472 11.596H90.8552L91.7192 18.238L92.5112 11.596H95.3192L93.1772 22H90.1352ZM99.7634 22.18C99.0074 22.18 98.3594 22.048 97.8194 21.784C97.2794 21.508 96.8654 21.112 96.5774 20.596C96.2894 20.068 96.1454 19.438 96.1454 18.706V14.89C96.1454 14.146 96.2894 13.516 96.5774 13C96.8654 12.484 97.2794 12.094 97.8194 11.83C98.3714 11.554 99.0194 11.416 99.7634 11.416C100.531 11.416 101.167 11.548 101.671 11.812C102.187 12.076 102.571 12.466 102.823 12.982C103.087 13.498 103.219 14.134 103.219 14.89V16.978H99.0434V18.976C99.0434 19.24 99.0734 19.456 99.1334 19.624C99.1934 19.792 99.2774 19.912 99.3854 19.984C99.4934 20.056 99.6194 20.092 99.7634 20.092C99.9074 20.092 100.033 20.062 100.141 20.002C100.261 19.93 100.351 19.822 100.411 19.678C100.483 19.534 100.519 19.336 100.519 19.084V17.986H103.219V18.994C103.219 20.05 102.913 20.848 102.301 21.388C101.689 21.916 100.843 22.18 99.7634 22.18ZM99.0434 15.61H100.519V14.566C100.519 14.29 100.483 14.074 100.411 13.918C100.351 13.762 100.261 13.654 100.141 13.594C100.033 13.534 99.9014 13.504 99.7454 13.504C99.6014 13.504 99.4754 13.54 99.3674 13.612C99.2714 13.684 99.1934 13.81 99.1334 13.99C99.0734 14.158 99.0434 14.404 99.0434 14.728V15.61ZM104.852 22V11.596H107.786V13.324C108.122 12.724 108.458 12.268 108.794 11.956C109.13 11.632 109.538 11.47 110.018 11.47C110.114 11.47 110.198 11.476 110.27 11.488C110.342 11.488 110.408 11.5 110.468 11.524V14.44C110.336 14.38 110.186 14.332 110.018 14.296C109.862 14.248 109.694 14.224 109.514 14.224C109.178 14.224 108.866 14.314 108.578 14.494C108.29 14.674 108.026 14.92 107.786 15.232V22H104.852Z" fill="black"/>
<path d="M13.3763 32.3566C13.0395 32.7597 12.6245 33.0905 12.1564 33.3289C11.6882 33.5673 11.1767 33.7084 10.6525 33.7437C10.1284 33.7789 9.60248 33.7077 9.10661 33.5342C8.61074 33.3607 8.15514 33.0886 7.76731 32.7343C7.37947 32.3799 7.06743 31.9507 6.85001 31.4724C6.63258 30.9942 6.51428 30.4769 6.50224 29.9517C6.49019 29.4265 6.58465 28.9043 6.77993 28.4166C6.9752 27.9289 7.26724 27.4858 7.63842 27.114C7.26666 27.4852 6.82357 27.7772 6.33587 27.9725C5.84817 28.1678 5.32597 28.2623 4.80076 28.2502C4.27556 28.2382 3.75824 28.1199 3.28 27.9024C2.80177 27.685 2.37253 27.373 2.01817 26.9851C1.66382 26.5973 1.39169 26.1417 1.21821 25.6458C1.04473 25.15 0.973494 24.6241 1.00879 24.0999C1.04408 23.5758 1.18518 23.0642 1.42358 22.5961C1.66197 22.1279 1.99272 21.7129 2.39587 21.3761C1.99272 21.0393 1.66197 20.6243 1.42358 20.1561C1.18518 19.688 1.04408 19.1764 1.00879 18.6523C0.973494 18.1281 1.04473 17.6023 1.21821 17.1064C1.39169 16.6105 1.66382 16.1549 2.01817 15.7671C2.37253 15.3793 2.80177 15.0672 3.28 14.8498C3.75824 14.6324 4.27556 14.5141 4.80076 14.502C5.32597 14.49 5.84817 14.5844 6.33587 14.7797C6.82357 14.975 7.26666 15.267 7.63842 15.6382C7.26724 15.2664 6.9752 14.8233 6.77993 14.3356C6.58465 13.8479 6.49019 13.3257 6.50223 12.8005C6.51428 12.2753 6.63258 11.758 6.85001 11.2798C7.06743 10.8015 7.37947 10.3723 7.76731 10.0179C8.15514 9.6636 8.61074 9.39147 9.10661 9.21799C9.60248 9.04451 10.1283 8.97327 10.6525 9.00857C11.1767 9.04386 11.6882 9.18496 12.1564 9.42336C12.6245 9.66175 13.0395 9.9925 13.3763 10.3956C13.7132 9.9925 14.1282 9.66175 14.5963 9.42336C15.0644 9.18496 15.576 9.04386 16.1002 9.00857C16.6243 8.97327 17.1502 9.04451 17.6461 9.21799C18.1419 9.39147 18.5975 9.6636 18.9854 10.0179C19.3732 10.3723 19.6852 10.8015 19.9027 11.2798C20.1201 11.758 20.2384 12.2753 20.2504 12.8005C20.2625 13.3257 20.168 13.8479 19.9727 14.3356C19.7775 14.8233 19.4854 15.2664 19.1142 15.6382C19.486 15.267 19.9291 14.975 20.4168 14.7797C20.9045 14.5844 21.4267 14.49 21.9519 14.502C22.4771 14.5141 22.9944 14.6324 23.4727 14.8498C23.9509 15.0672 24.3801 15.3792 24.7345 15.7671C25.0888 16.1549 25.361 16.6105 25.5344 17.1064C25.7079 17.6023 25.7792 18.1281 25.7439 18.6523C25.7086 19.1764 25.5675 19.688 25.3291 20.1561C25.0907 20.6243 24.7599 21.0393 24.3568 21.3761C24.7599 21.7129 25.0907 22.1279 25.3291 22.5961C25.5675 23.0642 25.7086 23.5758 25.7439 24.0999C25.7792 24.6241 25.7079 25.15 25.5345 25.6458C25.361 26.1417 25.0888 26.5973 24.7345 26.9851C24.3801 27.373 23.9509 27.685 23.4727 27.9024C22.9944 28.1199 22.4771 28.2382 21.9519 28.2502C21.4267 28.2622 20.9045 28.1678 20.4168 27.9725C19.9291 27.7772 19.486 27.4852 19.1142 27.114C19.8131 27.8749 20.1811 28.8823 20.1372 29.9145C20.0933 30.9467 19.6412 31.9192 18.8803 32.618C18.1194 33.3169 17.1121 33.6848 16.0799 33.641C15.0477 33.5971 14.0752 33.145 13.3763 32.3841" fill="#454545"/>
<path d="M13.3763 32.3566C13.0395 32.7597 12.6245 33.0905 12.1564 33.3289C11.6882 33.5673 11.1767 33.7084 10.6525 33.7437C10.1284 33.7789 9.60248 33.7077 9.10661 33.5342C8.61074 33.3607 8.15514 33.0886 7.76731 32.7343C7.37947 32.3799 7.06743 31.9507 6.85001 31.4724C6.63258 30.9942 6.51428 30.4769 6.50224 29.9517C6.49019 29.4265 6.58465 28.9043 6.77993 28.4166C6.9752 27.9289 7.26724 27.4858 7.63842 27.114C7.26666 27.4852 6.82357 27.7772 6.33587 27.9725C5.84817 28.1678 5.32597 28.2623 4.80076 28.2502C4.27556 28.2382 3.75824 28.1199 3.28 27.9024C2.80177 27.685 2.37253 27.373 2.01817 26.9851C1.66382 26.5973 1.39169 26.1417 1.21821 25.6458C1.04473 25.15 0.973494 24.6241 1.00879 24.0999C1.04408 23.5758 1.18518 23.0642 1.42358 22.5961C1.66197 22.1279 1.99272 21.7129 2.39587 21.3761C1.99272 21.0393 1.66197 20.6243 1.42358 20.1561C1.18518 19.688 1.04408 19.1764 1.00879 18.6523C0.973494 18.1281 1.04473 17.6023 1.21821 17.1064C1.39169 16.6105 1.66382 16.1549 2.01817 15.7671C2.37253 15.3793 2.80177 15.0672 3.28 14.8498C3.75824 14.6324 4.27556 14.5141 4.80076 14.502C5.32597 14.49 5.84817 14.5844 6.33587 14.7797C6.82357 14.975 7.26666 15.267 7.63842 15.6382C7.26724 15.2664 6.9752 14.8233 6.77993 14.3356C6.58465 13.8479 6.49019 13.3257 6.50223 12.8005C6.51428 12.2753 6.63258 11.758 6.85001 11.2798C7.06743 10.8015 7.37947 10.3723 7.76731 10.0179C8.15514 9.6636 8.61074 9.39147 9.10661 9.21799C9.60248 9.04451 10.1283 8.97327 10.6525 9.00857C11.1767 9.04386 11.6882 9.18496 12.1564 9.42336C12.6245 9.66175 13.0395 9.9925 13.3763 10.3956C13.7132 9.9925 14.1282 9.66175 14.5963 9.42336C15.0644 9.18496 15.576 9.04386 16.1002 9.00857C16.6243 8.97327 17.1502 9.04451 17.6461 9.21799C18.1419 9.39147 18.5975 9.6636 18.9854 10.0179C19.3732 10.3723 19.6852 10.8015 19.9027 11.2798C20.1201 11.758 20.2384 12.2753 20.2504 12.8005C20.2625 13.3257 20.168 13.8479 19.9727 14.3356C19.7775 14.8233 19.4854 15.2664 19.1142 15.6382C19.486 15.267 19.9291 14.975 20.4168 14.7797C20.9045 14.5844 21.4267 14.49 21.9519 14.502C22.4771 14.5141 22.9944 14.6324 23.4727 14.8498C23.9509 15.0672 24.3801 15.3792 24.7345 15.7671C25.0888 16.1549 25.361 16.6105 25.5344 17.1064C25.7079 17.6023 25.7792 18.1281 25.7439 18.6523C25.7086 19.1764 25.5675 19.688 25.3291 20.1561C25.0907 20.6243 24.7599 21.0393 24.3568 21.3761C24.7599 21.7129 25.0907 22.1279 25.3291 22.5961C25.5675 23.0642 25.7086 23.5758 25.7439 24.0999C25.7792 24.6241 25.7079 25.15 25.5345 25.6458C25.361 26.1417 25.0888 26.5973 24.7345 26.9851C24.3801 27.373 23.9509 27.685 23.4727 27.9024C22.9944 28.1199 22.4771 28.2382 21.9519 28.2502C21.4267 28.2622 20.9045 28.1678 20.4168 27.9725C19.9291 27.7772 19.486 27.4852 19.1142 27.114C19.8131 27.8749 20.1811 28.8823 20.1372 29.9145C20.0933 30.9467 19.6412 31.9192 18.8803 32.618C18.1194 33.3169 17.1121 33.6848 16.0799 33.641C15.0477 33.5971 14.0752 33.145 13.3763 32.3841" stroke="white" stroke-width="2" stroke-linecap="round" stroke-linejoin="round"/>
<path d="M7.87378 15.8734L18.8818 26.8813" stroke="white" stroke-width="2" stroke-linecap="round" stroke-linejoin="round"/>
<path d="M7.88037 26.8721C12.362 22.3905 14.8746 19.8778 19.3562 15.3962" stroke="white" stroke-width="2" stroke-linecap="round" stroke-linejoin="round"/>
</svg>
